<svg width="16" height="16" viewBox="0 0 16 16" fill="none" xmlns="http://www.w3.org/2000/svg">
<path d="M4.6665 7.33334H11.3332V8.66668H4.6665V7.33334Z" fill="#A2B4BE"/>
<path d="M8.00016 1.33334C4.32416 1.33334 1.3335 4.32401 1.3335 8.00001C1.3335 11.676 4.32416 14.6667 8.00016 14.6667C11.6762 14.6667 14.6668 11.676 14.6668 8.00001C14.6668 4.32401 11.6762 1.33334 8.00016 1.33334ZM8.00016 13.3333C5.0595 13.3333 2.66683 10.9407 2.66683 8.00001C2.66683 5.05934 5.0595 2.66668 8.00016 2.66668C10.9408 2.66668 13.3335 5.05934 13.3335 8.00001C13.3335 10.9407 10.9408 13.3333 8.00016 13.3333Z" fill="#A2B4BE"/>
</svg>
