<svg width="32" height="32" viewBox="0 0 32 32" fill="none" xmlns="http://www.w3.org/2000/svg">
<path d="M17.3335 9.33334H14.6668V14.6667H9.3335V17.3333H14.6668V22.6667H17.3335V17.3333H22.6668V14.6667H17.3335V9.33334Z" fill="#CBDCE5"/>
<path d="M15.9998 2.66666C8.64784 2.66666 2.6665 8.64799 2.6665 16C2.6665 23.352 8.64784 29.3333 15.9998 29.3333C23.3518 29.3333 29.3332 23.352 29.3332 16C29.3332 8.64799 23.3518 2.66666 15.9998 2.66666ZM15.9998 26.6667C10.1185 26.6667 5.33317 21.8813 5.33317 16C5.33317 10.1187 10.1185 5.33332 15.9998 5.33332C21.8812 5.33332 26.6665 10.1187 26.6665 16C26.6665 21.8813 21.8812 26.6667 15.9998 26.6667Z" fill="#CBDCE5"/>
</svg>
