<svg width="28" height="28" viewBox="0 0 28 28" fill="none" xmlns="http://www.w3.org/2000/svg">
<path d="M18.1665 18.667L22.2498 22.7503" stroke="#C3C4C4" stroke-width="1.75" stroke-linecap="round" stroke-linejoin="round"/>
<path d="M19.8782 15.9589C19.4678 16.9497 18.8662 17.85 18.1079 18.6084C16.5763 20.1399 14.4991 21.0003 12.3332 21.0003C10.1672 21.0003 8.09001 20.1399 6.55846 18.6084C5.02692 17.0768 4.1665 14.9996 4.1665 12.8337C4.1665 10.6677 5.02692 8.5905 6.55846 7.05895C7.31681 6.30061 8.2171 5.69906 9.20792 5.28864C10.1987 4.87823 11.2607 4.66699 12.3332 4.66699C13.4056 4.66699 14.4676 4.87823 15.4584 5.28864C16.4492 5.69906 17.3495 6.30061 18.1079 7.05895C18.8662 7.8173 19.4678 8.71759 19.8782 9.70841C20.2886 10.6992 20.4998 11.7612 20.4998 12.8337C20.4998 13.9061 20.2886 14.9681 19.8782 15.9589Z" stroke="#C3C4C4" stroke-width="1.75" stroke-linecap="round" stroke-linejoin="round"/>
</svg>
