<svg width="34" height="34" viewBox="0 0 34 34" fill="none" xmlns="http://www.w3.org/2000/svg">
<path d="M33.2452 11.9667C33.1407 11.6581 32.9479 11.3869 32.6908 11.1866C32.4336 10.9864 32.1234 10.866 31.7986 10.8402L22.7876 10.1243C22.4849 10.1002 22.2192 9.9134 22.0942 9.63666L18.1852 0.984815C18.0542 0.691708 17.8412 0.442757 17.5719 0.268006C17.3026 0.0932563 16.9884 0.000176442 16.6673 2.50598e-07C16.3463 -0.00017594 16.032 0.0925591 15.7625 0.267014C15.493 0.441468 15.2797 0.690186 15.1485 0.983149L11.2394 9.63661C11.1144 9.91338 10.8487 10.1002 10.546 10.1243L1.53505 10.8402C1.21581 10.8655 0.910612 10.9822 0.655973 11.1763C0.401333 11.3705 0.208033 11.6339 0.0991996 11.9351C-0.00963402 12.2362 -0.0293934 12.5623 0.0422856 12.8744C0.113965 13.1865 0.274047 13.4713 0.50338 13.6948L7.18925 20.2115C7.39777 20.4148 7.48507 20.7121 7.41955 20.9958L5.04174 31.2908C4.96633 31.6163 4.9905 31.9569 5.11111 32.2684C5.23171 32.58 5.44318 32.8481 5.71808 33.038C5.99298 33.2278 6.31861 33.3307 6.65272 33.3333C6.98683 33.3358 7.31399 33.2379 7.59175 33.0522L16.2046 27.3111C16.4845 27.1246 16.8491 27.1246 17.129 27.3111L25.7419 33.0522C26.0258 33.2407 26.3606 33.3377 26.7013 33.3302C27.0419 33.3228 27.3722 33.2112 27.6475 33.0104C27.9229 32.8097 28.1302 32.5295 28.2415 32.2075C28.3528 31.8854 28.3628 31.537 28.2702 31.2091L25.3649 21.0443C25.2774 20.7381 25.372 20.4088 25.6087 20.1958L32.7819 13.7415C33.2769 13.2949 33.4586 12.5983 33.2452 11.9667Z" fill="#FF4573"/>
</svg>
