<svg width="23" height="23" viewBox="0 0 23 23" fill="none" xmlns="http://www.w3.org/2000/svg">
<path d="M23 11.7551C23 10.8095 22.9217 10.1195 22.7523 9.40399H11.7347V13.6717H18.2018C18.0714 14.7323 17.3674 16.3295 15.8027 17.4028L15.7808 17.5457L19.2643 20.1903L19.5057 20.2139C21.7222 18.2078 23 15.2562 23 11.7551Z" fill="#4285F4"/>
<path d="M11.7339 23.0001C14.9022 23.0001 17.562 21.9778 19.5048 20.2145L15.8019 17.4033C14.811 18.0806 13.481 18.5533 11.7339 18.5533C8.63079 18.5533 5.99704 16.5473 5.05818 13.7745L4.92057 13.7859L1.29835 16.5332L1.25098 16.6622C3.18065 20.4189 7.14434 23.0001 11.7339 23.0001Z" fill="#34A853"/>
<path d="M5.05888 13.7739C4.81116 13.0583 4.66779 12.2916 4.66779 11.4994C4.66779 10.7072 4.81116 9.94053 5.04585 9.22499L5.03929 9.0726L1.37166 6.28125L1.25166 6.33719C0.456352 7.89609 0 9.64667 0 11.4994C0 13.3522 0.456352 15.1027 1.25166 16.6616L5.05888 13.7739Z" fill="#FBBC05"/>
<path d="M11.734 4.44662C13.9375 4.44662 15.4238 5.37939 16.2714 6.15888L19.5831 2.98999C17.5492 1.13722 14.9023 0 11.734 0C7.14438 0 3.18066 2.58108 1.25098 6.3377L5.04517 9.22551C5.99707 6.45275 8.63083 4.44662 11.734 4.44662Z" fill="#EB4335"/>
</svg>
