<svg width="75" height="72" viewBox="0 0 75 72" fill="none" xmlns="http://www.w3.org/2000/svg">
<circle cx="36" cy="36" r="36" fill="url(#paint0_linear_1792_7682)"/>
<path d="M73.5795 18.1846C74.2961 19.6169 74.7 21.233 74.7 22.9436C74.7 24.9308 74.1552 26.7904 73.2077 28.3825H53.077C52.1295 26.7904 51.5847 24.9308 51.5847 22.9436C51.5847 21.233 51.9886 19.6169 52.7052 18.1846H73.5795Z" fill="white"/>
<path fill-rule="evenodd" clip-rule="evenodd" d="M73.5794 18.1846H67.9015C66.6449 19.3814 65.8617 21.0713 65.8617 22.9436C65.8617 25.2054 67.0045 27.1998 68.744 28.3825H73.2076C74.1551 26.7908 74.6999 24.931 74.6999 22.9436C74.6999 21.2333 74.296 19.6169 73.5794 18.1846Z" fill="url(#paint1_linear_1792_7682)"/>
<path d="M54.7699 18.1846C55.4866 19.6169 55.8904 21.233 55.8904 22.9436C55.8904 24.9308 55.3456 26.7904 54.3981 28.3825H34.2674C33.32 26.7904 32.7751 24.9308 32.7751 22.9436C32.7751 21.233 33.179 19.6169 33.8956 18.1846H54.7699Z" fill="white"/>
<path fill-rule="evenodd" clip-rule="evenodd" d="M54.7698 18.1846H49.0919C47.8354 19.3814 47.0521 21.0713 47.0521 22.9436C47.0521 25.2054 48.1949 27.1998 49.9345 28.3825H54.398C55.3455 26.7908 55.8903 24.931 55.8903 22.9436C55.8903 21.2333 55.4864 19.6169 54.7698 18.1846Z" fill="url(#paint2_linear_1792_7682)"/>
<defs>
<linearGradient id="paint0_linear_1792_7682" x1="35.9102" y1="29.8055" x2="-5.38654" y2="72" gradientUnits="userSpaceOnUse">
<stop stop-color="#0F1112"/>
<stop offset="1" stop-color="#636465"/>
</linearGradient>
<linearGradient id="paint1_linear_1792_7682" x1="70.2808" y1="18.1846" x2="70.2808" y2="28.3825" gradientUnits="userSpaceOnUse">
<stop stop-color="#0F1112"/>
<stop offset="1" stop-color="#636465"/>
</linearGradient>
<linearGradient id="paint2_linear_1792_7682" x1="51.4712" y1="18.1846" x2="51.4712" y2="28.3825" gradientUnits="userSpaceOnUse">
<stop stop-color="#0F1112"/>
<stop offset="1" stop-color="#636465"/>
</linearGradient>
</defs>
</svg>
