<svg width="32" height="32" viewBox="0 0 32 32" fill="none" xmlns="http://www.w3.org/2000/svg">
<path d="M8.00004 29.333C7.26671 29.333 6.63915 29.0721 6.11737 28.5503C5.5956 28.0286 5.33426 27.4006 5.33337 26.6663V13.333C5.33337 12.5997 5.59471 11.9721 6.11737 11.4503C6.64004 10.9286 7.2676 10.6672 8.00004 10.6663H9.33337V7.99968C9.33337 6.15523 9.9836 4.58323 11.284 3.28368C12.5845 1.98412 14.1565 1.3339 16 1.33301C17.8436 1.33212 19.416 1.98234 20.7174 3.28368C22.0187 4.58501 22.6685 6.15701 22.6667 7.99968V10.6663H24C24.7334 10.6663 25.3614 10.9277 25.884 11.4503C26.4067 11.973 26.6676 12.6006 26.6667 13.333V26.6663C26.6667 27.3997 26.4058 28.0277 25.884 28.5503C25.3623 29.073 24.7343 29.3339 24 29.333H8.00004ZM16 22.6663C16.7334 22.6663 17.3614 22.4055 17.884 21.8837C18.4067 21.3619 18.6676 20.7339 18.6667 19.9997C18.6658 19.2655 18.4049 18.6379 17.884 18.117C17.3632 17.5961 16.7352 17.3348 16 17.333C15.2649 17.3312 14.6374 17.5926 14.1174 18.117C13.5974 18.6415 13.336 19.269 13.3334 19.9997C13.3307 20.7303 13.592 21.3583 14.1174 21.8837C14.6427 22.409 15.2703 22.6699 16 22.6663ZM12 10.6663H20V7.99968C20 6.88856 19.6112 5.94412 18.8334 5.16634C18.0556 4.38856 17.1112 3.99968 16 3.99968C14.8889 3.99968 13.9445 4.38856 13.1667 5.16634C12.3889 5.94412 12 6.88856 12 7.99968V10.6663Z" fill="#FF4573"/>
</svg>
