<svg width="16" height="16" viewBox="0 0 16 16" fill="none" xmlns="http://www.w3.org/2000/svg">
<path d="M7.99963 1.83331C10.6689 1.83331 12.8334 3.99709 12.8336 6.66632C12.8336 8.46881 11.6144 10.3473 10.2926 11.8343C9.64357 12.5644 8.99345 13.175 8.50452 13.6028C8.30559 13.7769 8.13266 13.9192 7.99963 14.0276C7.86666 13.9192 7.69446 13.7767 7.49573 13.6028C7.00676 13.175 6.3558 12.5646 5.70667 11.8343C4.38495 10.3473 3.16663 8.4687 3.16663 6.66632C3.1668 3.9972 5.33052 1.83349 7.99963 1.83331Z" stroke="#939494"/>
<path d="M10 6.66669C10 7.19712 9.78929 7.70583 9.41421 8.0809C9.03914 8.45597 8.53043 8.66669 8 8.66669C7.46957 8.66669 6.96086 8.45597 6.58579 8.0809C6.21071 7.70583 6 7.19712 6 6.66669C6 6.13625 6.21071 5.62755 6.58579 5.25247C6.96086 4.8774 7.46957 4.66669 8 4.66669C8.53043 4.66669 9.03914 4.8774 9.41421 5.25247C9.78929 5.62755 10 6.13625 10 6.66669Z" stroke="#939494"/>
</svg>
