<svg width="28" height="28" viewBox="0 0 28 28" fill="none" xmlns="http://www.w3.org/2000/svg">
<path d="M18.1665 18.668L22.2498 22.7513" stroke="#C3C4C4" stroke-width="1.75" stroke-linecap="round" stroke-linejoin="round"/>
<path d="M19.8782 15.9599C19.4678 16.9507 18.8662 17.851 18.1079 18.6093C16.5763 20.1409 14.4991 21.0013 12.3332 21.0013C10.1672 21.0013 8.09001 20.1409 6.55846 18.6093C5.02692 17.0778 4.1665 15.0006 4.1665 12.8346C4.1665 10.6687 5.02692 8.59148 6.55846 7.05993C7.31681 6.30158 8.2171 5.70003 9.20792 5.28962C10.1987 4.87921 11.2607 4.66797 12.3332 4.66797C13.4056 4.66797 14.4676 4.87921 15.4584 5.28962C16.4492 5.70003 17.3495 6.30158 18.1079 7.05993C18.8662 7.81828 19.4678 8.71856 19.8782 9.70939C20.2886 10.7002 20.4998 11.7622 20.4998 12.8346C20.4998 13.9071 20.2886 14.9691 19.8782 15.9599Z" stroke="#C3C4C4" stroke-width="1.75" stroke-linecap="round" stroke-linejoin="round"/>
</svg>
