<svg width="190" height="28" viewBox="0 0 190 28" fill="none" xmlns="http://www.w3.org/2000/svg">
<path d="M51.7682 12.7555L61.5287 7.36877V12.3872L51.7682 17.7739V12.7555Z" fill="#0F1112"/>
<rect x="46.5194" y="7.36877" width="4.60404" height="20.0736" fill="#0F1112"/>
<path d="M95.7031 1.25195C97.1027 1.25197 98.3058 1.48563 99.3125 1.95215C100.344 2.39414 101.142 3.04488 101.707 3.9043C102.296 4.73912 102.591 5.74628 102.591 6.9248C102.591 7.95598 102.333 8.91397 101.817 9.79785C101.302 10.6572 100.491 11.4799 99.3857 12.2656C98.8017 12.6904 98.1089 13.124 97.3096 13.5703L102.88 18.915C103.522 17.6779 104.002 16.2225 104.321 14.5488L108.042 15.7646C107.577 18.0017 106.8 19.9581 105.716 21.6357L108.963 24.751L106.421 27.7344L103.158 24.6016C103.157 24.6025 103.155 24.6026 103.154 24.6035L98.6543 20.2656L98.6445 20.2686L93.6387 15.4629C92.9274 15.8598 92.3268 16.2432 91.8359 16.6113C91.0504 17.2005 90.4854 17.7897 90.1416 18.3789C89.7979 18.9681 89.626 19.6191 89.626 20.3311C89.626 21.0431 89.8345 21.6698 90.252 22.21C90.6939 22.7501 91.3081 23.1798 92.0938 23.499C92.8793 23.7936 93.7999 23.9414 94.8555 23.9414C96.4268 23.9414 97.8512 23.5975 99.1279 22.9102C99.4293 22.7453 99.7173 22.5586 99.9961 22.3564L102.709 24.9707C102.087 25.4609 101.422 25.8925 100.712 26.2617C98.8704 27.2192 96.8079 27.6982 94.5244 27.6982C92.7319 27.6982 91.1234 27.4028 89.6992 26.8135C88.2751 26.2242 87.1579 25.4141 86.3477 24.3828C85.5374 23.3516 85.1319 22.1609 85.1318 20.8105C85.1318 19.5828 85.4022 18.4773 85.9424 17.4951C86.4826 16.513 87.342 15.5802 88.5205 14.6963C89.2524 14.1321 90.112 13.5671 91.0996 13.0029C90.53 12.4153 90.0506 11.8627 89.6621 11.3447C89.1465 10.6572 88.7786 9.99387 88.5576 9.35547C88.3367 8.69263 88.2256 8.01746 88.2256 7.33008C88.2256 6.12698 88.5327 5.0706 89.1465 4.16211C89.7604 3.22903 90.6322 2.51649 91.7617 2.02539C92.8912 1.50974 94.2053 1.25195 95.7031 1.25195ZM33.0586 7.44043C34.9739 7.44043 36.6809 7.85752 38.1787 8.69238C39.6764 9.52723 40.8545 10.7062 41.7139 12.2285C42.5732 13.7508 43.0039 15.543 43.0039 17.6055C43.0039 17.8018 42.9913 18.0231 42.9668 18.2686C42.9668 18.5141 42.9542 18.7478 42.9297 18.9688H27.498C27.6239 19.6484 27.8569 20.2743 28.1973 20.8467C28.7375 21.7552 29.4983 22.4552 30.4805 22.9463C31.4627 23.4374 32.5923 23.6836 33.8691 23.6836C34.974 23.6836 35.9686 23.5117 36.8525 23.168C37.7365 22.8242 38.5224 22.2835 39.21 21.5469L41.6777 24.3828C40.7938 25.414 39.6766 26.2126 38.3262 26.7773C37.0003 27.3175 35.4775 27.5869 33.7588 27.5869C31.5734 27.5869 29.6579 27.1573 28.0127 26.2979C26.3922 25.4139 25.1272 24.2108 24.2188 22.6885C23.3349 21.1661 22.8926 19.4348 22.8926 17.4951C22.8926 15.5308 23.3223 13.7995 24.1816 12.3018C25.0656 10.7794 26.2696 9.58891 27.792 8.72949C29.3389 7.87014 31.0943 7.44045 33.0586 7.44043ZM73.0117 7.44043C74.927 7.44043 76.634 7.85752 78.1318 8.69238C79.6295 9.52724 80.8076 10.7062 81.667 12.2285C82.5264 13.7508 82.956 15.543 82.9561 17.6055C82.9561 17.8018 82.9445 18.0231 82.9199 18.2686C82.9199 18.5141 82.9074 18.7478 82.8828 18.9688H67.4502C67.5761 19.6483 67.8092 20.2743 68.1494 20.8467C68.6896 21.7552 69.4514 22.4552 70.4336 22.9463C71.4158 23.4374 72.5454 23.6836 73.8223 23.6836C74.9271 23.6836 75.9218 23.5117 76.8057 23.168C77.6896 22.8242 78.4756 22.2835 79.1631 21.5469L81.6309 24.3828C80.7469 25.4141 79.6288 26.2126 78.2783 26.7773C76.9526 27.3174 75.4304 27.5869 73.7119 27.5869C71.5265 27.5869 69.611 27.1573 67.9658 26.2979C66.3452 25.4139 65.0804 24.2109 64.1719 22.6885C63.288 21.1661 62.8457 19.4349 62.8457 17.4951C62.8457 15.5308 63.2754 13.7995 64.1348 12.3018C65.0187 10.7794 66.2227 9.58891 67.7451 8.72949C69.292 7.87016 71.0474 7.44043 73.0117 7.44043ZM145.265 7.44043C147.303 7.44044 149.107 7.8701 150.679 8.72949C152.275 9.58891 153.515 10.7678 154.399 12.2656C155.308 13.7633 155.762 15.5065 155.762 17.4951C155.762 19.4348 155.308 21.1662 154.399 22.6885C153.515 24.2109 152.275 25.4139 150.679 26.2979C149.107 27.1573 147.303 27.5869 145.265 27.5869C143.251 27.5869 141.458 27.1573 139.887 26.2979C138.315 25.4139 137.075 24.2107 136.167 22.6885C135.259 21.1661 134.804 19.4349 134.804 17.4951C134.804 15.5308 135.258 13.7995 136.167 12.3018C137.075 10.7796 138.315 9.58886 139.887 8.72949C141.458 7.87007 143.251 7.44043 145.265 7.44043ZM4.60449 9.95996C5.15984 9.36073 5.82218 8.86428 6.59277 8.47168C7.91873 7.78415 9.44133 7.44043 11.1602 7.44043C12.7317 7.44043 14.1316 7.74746 15.3594 8.36133C16.6115 8.97521 17.5936 9.92055 18.3057 11.1973C19.0176 12.4495 19.374 14.0699 19.374 16.0586V27.3291H14.7695V16.6484C14.7695 14.9051 14.3523 13.6036 13.5176 12.7441C12.7073 11.8847 11.5651 11.4551 10.0918 11.4551C9.01149 11.4551 8.05355 11.6762 7.21875 12.1182C6.38412 12.5601 5.73306 13.2227 5.2666 14.1064C4.82462 14.9658 4.6045 16.0588 4.60449 17.3848V27.3291H0V0H4.60449V9.95996ZM123.071 7.44043C124.643 7.44043 126.043 7.74746 127.271 8.36133C128.523 8.97521 129.505 9.92053 130.217 11.1973C130.929 12.4495 131.285 14.0699 131.285 16.0586V27.3291H126.681V16.6484C126.681 14.9051 126.264 13.6036 125.429 12.7441C124.618 11.8847 123.476 11.4551 122.003 11.4551C120.923 11.4551 119.965 11.6762 119.13 12.1182C118.295 12.5601 117.644 13.2227 117.178 14.1064C116.736 14.9658 116.516 16.0588 116.516 17.3848V27.3291H111.911V7.66113H116.294V10.2109C116.892 9.49782 117.628 8.91789 118.504 8.47168C119.83 7.78415 121.352 7.44044 123.071 7.44043ZM165.541 22.1543L170.969 7.47656H174.837L179.237 19.751H179.227L181.949 27.3291H177.894L172.822 13.7744L167.654 27.3291H163.234L156.016 7.47656H160.361L165.541 22.1543ZM182.438 26.9922L180.431 21.4092L185.481 7.47656H189.569L182.438 26.9922ZM145.302 11.3447C144.172 11.3447 143.165 11.59 142.281 12.0811C141.422 12.5721 140.734 13.2839 140.219 14.2168C139.703 15.1253 139.445 16.2184 139.445 17.4951C139.445 18.7474 139.703 19.8404 140.219 20.7734C140.734 21.7065 141.422 22.4191 142.281 22.9102C143.165 23.4012 144.16 23.6465 145.265 23.6465C146.394 23.6465 147.401 23.4012 148.285 22.9102C149.169 22.4191 149.857 21.7065 150.348 20.7734C150.863 19.8404 151.121 18.7474 151.121 17.4951C151.121 16.2184 150.863 15.1253 150.348 14.2168C149.857 13.2839 149.169 12.5721 148.285 12.0811C147.401 11.59 146.407 11.3448 145.302 11.3447ZM33.0586 11.123C31.9291 11.1231 30.9346 11.3693 30.0752 11.8604C29.2404 12.3514 28.577 13.039 28.0859 13.9229C27.7669 14.5107 27.5608 15.1739 27.46 15.9111H38.6465C38.557 15.1686 38.3413 14.4933 37.9941 13.8857C37.5031 13.0265 36.828 12.3514 35.9688 11.8604C35.1339 11.3693 34.1636 11.123 33.0586 11.123ZM73.0117 11.123C71.8822 11.123 70.8877 11.3693 70.0283 11.8604C69.1935 12.3514 68.5301 13.0389 68.0391 13.9229C67.72 14.5108 67.5129 15.1738 67.4121 15.9111H78.5996C78.5101 15.1686 78.2944 14.4933 77.9473 13.8857C77.4563 13.0265 76.7811 12.3514 75.9219 11.8604C75.087 11.3693 74.1167 11.1231 73.0117 11.123ZM95.7031 4.53027C94.672 4.53027 93.8618 4.78824 93.2725 5.30371C92.7077 5.79479 92.4248 6.4456 92.4248 7.25586C92.4248 7.67329 92.4982 8.0788 92.6455 8.47168C92.8174 8.86454 93.1129 9.30678 93.5303 9.79785C93.8361 10.1576 94.2416 10.589 94.7451 11.0938C95.4126 10.7309 95.9785 10.3991 96.4395 10.0918C97.2743 9.55159 97.8517 9.03602 98.1709 8.54492C98.5146 8.05388 98.6865 7.53818 98.6865 6.99805C98.6865 6.26156 98.4286 5.67242 97.9131 5.23047C97.3975 4.76395 96.6607 4.5303 95.7031 4.53027Z" fill="#0F1112"/>
</svg>
