<svg width="78" height="57" viewBox="0 0 78 57" fill="none" xmlns="http://www.w3.org/2000/svg">
<path d="M33.7589 0H48.7821L25.167 30.0909H10.1438L33.7589 0Z" fill="#0F1112"/>
<path d="M40.4766 30.0334C37.4809 30.0334 34.9313 29.294 33.0893 27.8599C30.9987 26.2282 29.9023 23.7615 30.0171 20.9124C30.0681 19.6249 30.3421 18.4202 30.6481 17.3112C27.1106 17.9167 23.3245 20.428 21.9988 21.5243L22.0115 21.5116L15.6186 13.8247C16.6894 12.9324 26.3585 5.20089 36.0786 7.66757C38.5644 8.29858 39.8583 9.79006 40.5084 10.931C42.121 13.7673 41.2159 16.8268 40.5531 19.0576C40.4702 19.3317 40.3682 19.6886 40.2726 20.0328C41.6685 20.0583 44.0778 19.7269 47.0926 18.3501C51.9622 16.132 56.2964 12.1611 59.2922 7.17041L67.865 12.3141C64.9266 17.2028 61.1469 21.263 56.6279 24.3798C52.7462 27.0568 48.5204 28.8797 44.4156 29.6446C43.0388 29.8995 41.7258 30.027 40.4829 30.027L40.4766 30.0334Z" fill="#FF4573"/>
<path d="M34.2955 48.4172V56.6952H30.9121V48.8457C30.9121 46.2744 29.6377 45.0338 27.4724 45.0338C25.0589 45.0338 23.4349 46.4999 23.4349 49.3871V56.6952H20.0515V42.2369H23.277V44.109C24.3822 42.7782 26.1416 42.079 28.2618 42.079C31.7241 42.079 34.2955 44.0526 34.2955 48.4172Z" fill="black"/>
<path d="M37.3748 49.466C37.3748 45.1353 40.6228 42.079 45.0663 42.079C49.5098 42.079 52.7804 45.1353 52.7804 49.466C52.7804 53.7968 49.5549 56.8869 45.0663 56.8869C40.5777 56.8869 37.3748 53.7968 37.3748 49.466ZM49.3744 49.466C49.3744 46.703 47.5361 44.9436 45.0663 44.9436C42.5964 44.9436 40.792 46.703 40.792 49.466C40.792 52.2291 42.6303 53.9885 45.0663 53.9885C47.5023 53.9885 49.3744 52.2291 49.3744 49.466Z" fill="black"/>
<path d="M15.1349 52.5339C15.9244 51.3159 16.4883 49.8498 16.8379 48.2032L14.1087 47.3123C13.8605 48.5303 13.5109 49.613 13.0485 50.5039L8.96594 46.6018C11.6952 45.0567 12.8343 43.647 12.8343 41.7072C12.8343 39.1358 10.8268 37.5343 7.77047 37.5343C4.44349 37.5343 2.27814 39.3501 2.27814 42.0004C2.27814 43.3763 2.84203 44.6281 4.3871 46.1732C1.29696 47.91 0 49.5566 0 51.9137C0 54.891 2.89842 56.9774 6.90208 56.9774C9.21405 56.9774 11.2441 56.2669 12.8906 54.9925L10.8606 53.0753C9.78922 53.8309 8.54865 54.2143 7.15019 54.2143C4.82695 54.2143 3.30443 53.1317 3.30443 51.564C3.30443 50.2107 4.06005 49.207 6.25924 47.9889L11.2666 52.7821L13.2741 54.6993L15.6537 57L17.5259 54.8121L15.1462 52.5339H15.1349ZM5.357 41.944C5.357 40.7824 6.24796 39.9365 7.77047 39.9365C9.18021 39.9365 9.95839 40.6696 9.95839 41.7523C9.95839 42.8349 9.25916 43.568 7.05997 44.7522C5.70662 43.3988 5.357 42.7786 5.357 41.9327V41.944Z" fill="black"/>
<path d="M71.0733 52.9629L67.1825 42.2489H64.3404L60.3593 52.9066L56.5361 42.2489H53.3445L58.6564 56.6959H61.9044L65.6938 46.7375L69.4268 56.6959H72.4154L71.0733 52.9629Z" fill="black"/>
<path d="M72.787 56.3801L78.0086 42.2489H74.9974L71.3208 52.3088L72.787 56.3801Z" fill="black"/>
</svg>
